<svg xmlns="http://www.w3.org/2000/svg" width="240" height="160" viewBox="0 0 240 160" role="img" aria-label="hotel">
  <rect width="240" height="160" rx="8" fill="#f5f7f2"/>
  <rect x="24" y="38" width="72" height="90" rx="8" fill="#0e7c7b"/>
  <rect x="107" y="22" width="108" height="106" rx="8" fill="#20201d"/>
  <rect x="42" y="54" width="14" height="14" rx="3" fill="#f8f4df"/>
  <rect x="64" y="54" width="14" height="14" rx="3" fill="#f8f4df"/>
  <rect x="42" y="78" width="14" height="14" rx="3" fill="#f8f4df"/>
  <rect x="64" y="78" width="14" height="14" rx="3" fill="#f8f4df"/>
  <rect x="42" y="102" width="36" height="26" rx="5" fill="#e6b75a"/>
  <rect x="126" y="42" width="18" height="16" rx="3" fill="#f8f4df"/>
  <rect x="154" y="42" width="18" height="16" rx="3" fill="#f8f4df"/>
  <rect x="182" y="42" width="18" height="16" rx="3" fill="#f8f4df"/>
  <rect x="126" y="70" width="18" height="16" rx="3" fill="#f8f4df"/>
  <rect x="154" y="70" width="18" height="16" rx="3" fill="#f8f4df"/>
  <rect x="182" y="70" width="18" height="16" rx="3" fill="#f8f4df"/>
  <rect x="126" y="98" width="18" height="30" rx="4" fill="#d95c47"/>
  <rect x="154" y="98" width="46" height="30" rx="4" fill="#f8f4df"/>
  <path d="M19 136h202" stroke="#d8ded2" stroke-width="8" stroke-linecap="round"/>
</svg>
